<?xml version="1.0" encoding="utf-8"?>
<!-- Generator: Adobe Illustrator 21.0.0, SVG Export Plug-In . SVG Version: 6.00 Build 0)  -->
<svg version="1.1" id="Layer_1" xmlns="http://www.w3.org/2000/svg" xmlns:xlink="http://www.w3.org/1999/xlink" x="0px" y="0px"
	 viewBox="0 0 2047 306" style="enable-background:new 0 0 2047 306;" xml:space="preserve">
<style type="text/css">
	.st0{fill:#005ECF;}
	.st1{fill:#016EF1;}
	.st2{fill:#2487FF;}
	.st3{fill:#D8D8DA;}
	.st4{fill:#C6C5CB;}
	.st5{fill:#E0E0E2;}
</style>
<path class="st0" d="M359.5,100.7c0.4-2.9,0.7-6.7,0.8-9.6c0-1.6,0-3.8-0.1-5.4c-0.1-1.3-0.2-3-0.4-4.3c-0.3-2.7-1-6.4-1.5-8.3
	c-0.3-1.1-0.6-2.5-0.9-3.5c-1.3-4.2-1.3-4.2-2.3-6.6c-0.4-0.9-0.9-2.2-1.3-3.1c-0.8-1.8-2-4.1-2.9-5.8c-1-1.8-1.2-2.1-3.4-5.5
	c-0.6-0.8-1.4-1.9-2-2.7c-0.6-0.8-1.5-1.9-2.2-2.7c-0.7-0.8-1.6-1.8-2.3-2.6c-0.7-0.8-1.7-1.8-2.5-2.6c0,0-2.7-2.7-6.7-5.8
	c-2.1-1.6-4.9-3.5-7.2-4.9c-4.1-2.4-6.3-3.3-9.9-4.9c-2.2-0.9-5.1-1.9-7.4-2.5c-2.8-0.8-6.5-1.6-9.3-2c-3.2-0.4-7.5-0.7-10.7-0.8
	c-7.2-0.1-14.4,1.3-17.1,2.1c-2.6,0.7-6,1.6-8.5,2.6c-2.6,1-5.8,2.6-8.6,4c-0.7,0.3-1.3,0.6-1.9,1l-76.6,43.9c0.1,0,0.2-0.1,0.2-0.1
	c-9.3,5.2-15.2,16.5-15.5,32.7c-0.5,32.7,22.2,72.8,50.6,89.7c14.8,8.8,28.2,9.5,37.8,3.6c-0.2,0.1-0.4,0.3-0.7,0.4l76.6-43.9
	c2.1-1.2,4.8-2.9,6.7-4.3c2.2-1.6,5-3.8,6.9-5.7c2.4-2.4,5.5-5.7,7.6-8.3c1.7-2.1,3.8-5.2,5.2-7.6c1.6-2.7,3.4-6.3,4.6-9.2
	c1.2-2.9,2.5-6.9,3.3-9.9C358.6,106,359.2,103,359.5,100.7z"/>
<path class="st1" d="M210,193.1c-28.4-16.9-51.1-57-50.6-89.7s23.9-45.4,52.4-28.6c28.4,16.9,51.1,57,50.6,89.7
	C261.8,197.2,238.4,210,210,193.1z"/>
<path class="st2" d="M359.5,100.7c0.4-2.9,0.7-6.7,0.8-9.6c0-1.6,0-3.8-0.1-5.4c-0.1-1.3-0.2-3-0.4-4.3c-0.3-2.7-1-6.4-1.5-8.3
	c-0.3-1.1-0.6-2.5-0.9-3.5c-1.3-4.2-1.3-4.2-2.3-6.6c-0.4-0.9-0.9-2.2-1.3-3.1c-0.8-1.8-2-4.1-2.9-5.8c-1-1.8-1.2-2.1-3.4-5.5
	c-0.6-0.8-1.4-1.9-2-2.7c-0.6-0.8-1.5-1.9-2.2-2.7c-0.7-0.8-1.6-1.8-2.3-2.6c-0.7-0.8-1.7-1.8-2.5-2.6c0,0-2.7-2.7-6.7-5.8
	c-2.1-1.6-4.9-3.5-7.2-4.9c-4.1-2.4-6.3-3.3-9.9-4.9c-2.2-0.9-5.1-1.9-7.4-2.5c-2.8-0.8-6.5-1.6-9.3-2c-3.2-0.4-7.5-0.7-10.7-0.8
	c-7.2-0.1-14.4,1.3-17.1,2.1c-2.6,0.7-6,1.6-8.5,2.6c-2.6,1-5.8,2.6-8.6,4c-0.7,0.3-1.3,0.6-1.9,1l-76.6,43.9
	c9.5-5.5,22.7-4.5,37.1,4c28.4,16.9,51.1,57,50.6,89.7c-0.2,16.1-6,27.3-15.2,32.6l76.6-43.9c2.1-1.2,4.8-2.9,6.7-4.3
	c2.2-1.6,5-3.8,6.9-5.7c2.4-2.4,5.5-5.7,7.6-8.3c1.7-2.1,3.8-5.2,5.2-7.6c1.6-2.7,3.4-6.3,4.6-9.2c1.2-2.9,2.5-6.9,3.3-9.9
	C358.6,106,359.2,103,359.5,100.7z"/>
<path class="st0" d="M359.5,100.7c0.4-2.9,0.7-6.7,0.8-9.6c0-1.6,0-3.8-0.1-5.4c-0.1-1.3-0.2-3-0.4-4.3c-0.3-2.7-1-6.4-1.5-8.3
	c-0.3-1.1-0.6-2.5-0.9-3.5c-1.3-4.2-1.3-4.2-2.3-6.6c-0.4-0.9-0.9-2.2-1.3-3.1c-0.8-1.8-2-4.1-2.9-5.8c-1-1.8-1.2-2.1-3.4-5.5
	c-0.6-0.8-1.4-1.9-2-2.7c-0.1-0.2-0.3-0.3-0.4-0.5c0.1,0.2,0.2,0.5,0.3,0.7c0.9,2.4,0.9,2.4,2.3,6.6c0.3,1,0.7,2.5,0.9,3.5
	c0.5,1.9,1.2,5.6,1.5,8.3c0.1,1.3,0.3,3,0.4,4.3c0.1,1.6,0.2,3.8,0.1,5.4c-0.1,2.9-0.4,6.7-0.8,9.6c-0.3,2.3-0.9,5.3-1.5,7.5
	c-0.8,3-2.1,7-3.3,9.9c-1.2,2.9-3.1,6.5-4.6,9.2c-1.4,2.4-3.5,5.4-5.2,7.6c-2.1,2.6-5.2,5.9-7.6,8.3c-1.9,1.9-4.7,4.1-6.9,5.7
	c-1.9,1.4-4.6,3.1-6.7,4.3l-51.6,29.6c-0.5,15.3-6.3,26.1-15.2,31.2l76.6-43.9c2.1-1.2,4.8-2.9,6.7-4.3c2.2-1.6,5-3.8,6.9-5.7
	c2.4-2.4,5.5-5.7,7.6-8.3c1.7-2.1,3.8-5.2,5.2-7.6c1.6-2.7,3.4-6.3,4.6-9.2c1.2-2.9,2.5-6.9,3.3-9.9
	C358.6,106,359.2,103,359.5,100.7z"/>
<path class="st3" d="M259,164.4c0.5-31.6-21.4-70.4-48.9-86.8c-14-8.3-26.7-9.2-35.9-3.9l-74.1,42.5c-2.2,1.3-5.1,3.1-7.1,4.7
	c-2.1,1.6-4.8,3.8-6.6,5.6c-2.3,2.3-5.2,5.5-7.3,8.1c-1.7,2.1-3.6,5.1-4.9,7.4c-1.5,2.6-3.3,6.2-4.4,9c-1.1,2.8-2.3,6.7-3.1,9.6
	c-0.5,1.9-1,4.4-1.2,6.4c-0.6,4.6-0.7,6-0.8,10.2c0,2.5,0.2,5.9,0.5,8.4c0.4,3.8,1.2,7.3,1.4,8c0.3,1,0.6,2.4,0.9,3.4
	c1.3,4.1,1.3,4.1,2.2,6.4c0.4,0.9,0.8,2.1,1.3,3c1.7,3.6,1.8,3.8,2.8,5.6c0.9,1.6,2.3,3.8,3.3,5.3c0.5,0.8,1.3,1.9,1.9,2.6
	c0.6,0.8,1.5,1.9,2.1,2.6c0.7,0.8,1.6,1.8,2.2,2.5c0.7,0.8,1.7,1.7,2.4,2.5c0,0,2.6,2.6,6.5,5.6c2,1.5,4.8,3.3,6.9,4.7
	c1.6,0.9,3.7,2.1,5.4,2.9c1.2,0.6,2.9,1.3,4.2,1.9c2.1,0.9,5,1.9,7.2,2.5c2.7,0.7,6.3,1.6,9,1.9c3.1,0.4,7.2,0.7,10.3,0.7
	c7,0.1,13.9-1.3,16.6-2c2.5-0.7,5.8-1.6,8.2-2.6c3.1-1.3,7.2-3.2,10.2-4.8l74.1-42.5C253.1,190.8,258.7,179.9,259,164.4z"/>
<path class="st4" d="M259,164.4c0.3-19.1-7.6-40.9-20-58.7c6.4,13.5,10.1,28,9.9,41.1c-0.2,15.5-5.8,26.4-14.7,31.5L160,220.8
	c-3,1.6-7,3.6-10.2,4.8c-2.4,1-5.7,1.9-8.2,2.6c-2.7,0.7-9.6,2.1-16.6,2c-3.1,0-7.2-0.3-10.3-0.7c-2.7-0.4-6.3-1.2-9-1.9
	c-2.2-0.6-5.1-1.6-7.2-2.5c-1.3-0.5-3-1.3-4.2-1.9c-1.6-0.8-3.8-2-5.4-2.9c-2.1-1.3-4.9-3.2-6.9-4.7c-3.9-3-6.4-5.6-6.5-5.6
	c-0.7-0.7-1.7-1.7-2.4-2.5c-0.7-0.8-1.6-1.8-2.2-2.5c-0.4-0.5-0.8-1-1.3-1.6c0.4,0.9,0.8,2.1,1.3,2.9c1.7,3.6,1.8,3.8,2.8,5.6
	c0.9,1.6,2.3,3.8,3.3,5.3c0.5,0.8,1.3,1.9,1.9,2.6c0.6,0.8,1.5,1.9,2.1,2.6c0.7,0.8,1.6,1.8,2.2,2.5c0.7,0.8,1.7,1.7,2.4,2.5
	c0,0,2.6,2.6,6.5,5.6c2,1.5,4.8,3.3,6.9,4.7c1.6,0.9,3.7,2.1,5.4,2.9c1.2,0.6,2.9,1.3,4.2,1.9c2.1,0.9,5,1.9,7.2,2.5
	c2.7,0.7,6.3,1.6,9,1.9c3.1,0.4,7.2,0.7,10.3,0.7c7,0.1,13.9-1.3,16.6-2c2.5-0.7,5.8-1.6,8.2-2.6c3.1-1.3,7.2-3.2,10.2-4.8
	l74.1-42.5C253.1,190.8,258.7,179.9,259,164.4z"/>
<circle class="st5" cx="112.8" cy="170.6" r="36.6"/>
<g>
	<path class="st4" d="M392.6,32.1l191.1-5L565,65.8l-74.1-1.6l-79.3,176.5h-50.3l91.5-177.3l-74.6-1.6L392.6,32.1z"/>
	<path class="st4" d="M579,98.5h35.1L552,240.6h-47.6L579,98.5z M624,78.1h-35.1l18.6-47.3h44.4L624,78.1z"/>
	<path class="st4" d="M733.2,243l63.4-126.5l-41.6,0.3l-57.3,125H657l63.7-125h-42.5L619.4,243h-45.2l78.1-157.2l175-1.8l13.3,24.6
		L777.1,243H733.2z"/>
	<path class="st4" d="M864.2,205.7l97.4,0.8l-16.2,34.1l-144,0.5L880.7,85l118.7-0.8l8.9,23.2L974,179.6l-97.8-0.5L864.2,205.7z
		 M948.2,146l14.5-28.5l-58.6,2.1l-13,27.5L948.2,146z"/>
	<path class="st2" d="M1106.7,243.8L967.4,244l80.9-158.5l135-0.5l-16,33.3l-95.9,1.6l-40.3,89l92.2,0.5L1106.7,243.8z"/>
	<path class="st2" d="M1325.5,107.5l-47.1,99.9h12.9l-16.3,33.8l-143.2,0.5l80-156.7l97.9-0.8L1325.5,107.5z M1234.7,207.1l45-89.6
		l-44.5,1.8l-39.4,87.2L1234.7,207.1z"/>
	<path class="st2" d="M1311.4,292.6h-42.8l96.8-206.8l111.3-0.3l11.5,24.8L1434.1,220l-88.9,0.3L1311.4,292.6z M1391.1,119.6
		l-31.8,68.7l48.1,0.5l33.6-70.3L1391.1,119.6z"/>
	<path class="st2" d="M1630.1,113.5l-86,0.8l-16.2,31.4h67.4l9.6,22.2l-40.4,73.4l-124.7,1.1l17.3-30.9l84.9-0.3l17.6-32.8
		l-73.3,0.8l-1.4-26.7l39.1-70.8l120.5-0.5L1630.1,113.5z"/>
	<path class="st2" d="M1800.7,83.2l-78.4,159.3l-128.3-1.8l73.5-157.4h44.4L1648.4,210l49.8,0.3l58.6-127.1H1800.7z"/>
	<path class="st2" d="M1858.3,23.2h34.6l-99.1,218.2h-47L1858.3,23.2z"/>
	<path class="st2" d="M1878.9,205.7l97.4,0.8l-16.2,34.1l-144,0.5L1895.4,85l118.7-0.8l8.9,23.2l-34.2,72.1L1891,179L1878.9,205.7z
		 M1962.9,146l14.5-28.5l-58.6,2.1l-13,27.5L1962.9,146z"/>
</g>
</svg>
